<?xml version="1.0" encoding="utf-8"?>
<!-- Generator: Adobe Illustrator 15.0.0, SVG Export Plug-In . SVG Version: 6.00 Build 0)  -->
<!DOCTYPE svg PUBLIC "-//W3C//DTD SVG 1.1//EN" "http://www.w3.org/Graphics/SVG/1.1/DTD/svg11.dtd">
<svg version="1.1" id="Layer_1" xmlns="http://www.w3.org/2000/svg" xmlns:xlink="http://www.w3.org/1999/xlink" x="0px" y="0px"
	 width="600px" height="74.514px" viewBox="-150 0 600 74.514" enable-background="new -150 0 600 74.514" xml:space="preserve">
<g>
	<path fill="#FFFFFF" d="M-145.946,67.709V44.57h2.572v20.408h9.574v2.73H-145.946z"/>
	<path fill="#FFFFFF" d="M-121.402,62.311l2.467,0.363c-0.391,1.715-1.11,3.047-2.162,3.992c-1.053,0.949-2.396,1.422-4.032,1.422
		c-2.06,0-3.692-0.756-4.9-2.266s-1.81-3.625-1.81-6.355c0-2.816,0.609-5.008,1.83-6.563c1.22-1.559,2.802-2.336,4.748-2.336
		c1.882,0,3.42,0.762,4.615,2.287c1.192,1.529,1.789,3.674,1.789,6.443c0,0.168-0.005,0.418-0.013,0.754h-10.5
		c0.088,1.844,0.526,3.254,1.312,4.23c0.787,0.979,1.769,1.469,2.944,1.469c0.876,0,1.622-0.273,2.242-0.822
		C-122.256,64.381-121.766,63.51-121.402,62.311z M-129.238,57.717h7.862c-0.106-1.41-0.406-2.467-0.899-3.172
		c-0.763-1.094-1.748-1.641-2.959-1.641c-1.094,0-2.018,0.436-2.762,1.309C-128.746,55.088-129.16,56.256-129.238,57.717z"/>
	<path fill="#FFFFFF" d="M-110.729,65.168l0.345,2.51c-0.672,0.168-1.274,0.252-1.802,0.252c-0.868,0-1.541-0.164-2.017-0.49
		c-0.478-0.324-0.813-0.754-1.008-1.285s-0.29-1.65-0.29-3.355v-9.643h-1.75v-2.209h1.75v-4.152l2.372-1.705v5.857h2.399v2.209
		h-2.399v9.799c0,0.811,0.042,1.332,0.126,1.563c0.084,0.232,0.22,0.416,0.41,0.553c0.189,0.135,0.462,0.205,0.816,0.205
		C-111.51,65.279-111.162,65.24-110.729,65.168z"/>
	<path fill="#FFFFFF" d="M-108.54,47.631v-3.297h2.56v2.604c0,1.41-0.138,2.428-0.412,3.047c-0.379,0.852-0.972,1.494-1.777,1.926
		l-0.584-1.123c0.479-0.23,0.834-0.598,1.068-1.098c0.233-0.5,0.365-1.186,0.392-2.059H-108.54z"/>
	<path fill="#FFFFFF" d="M-103.806,62.705l2.361-0.441c0.132,1.125,0.5,1.988,1.106,2.588c0.605,0.6,1.452,0.9,2.54,0.9
		c1.096,0,1.91-0.266,2.44-0.797c0.529-0.529,0.795-1.156,0.795-1.871c0-0.643-0.235-1.146-0.703-1.516
		c-0.326-0.252-1.141-0.572-2.44-0.963c-1.75-0.525-2.964-0.979-3.64-1.365c-0.676-0.383-1.188-0.914-1.538-1.594
		c-0.351-0.68-0.524-1.43-0.524-2.25c0-0.746,0.143-1.438,0.43-2.074c0.289-0.637,0.679-1.166,1.173-1.586
		c0.374-0.326,0.878-0.605,1.52-0.83c0.64-0.225,1.328-0.338,2.063-0.338c1.104,0,2.075,0.189,2.909,0.566
		c0.834,0.379,1.452,0.891,1.851,1.539c0.397,0.648,0.672,1.514,0.821,2.598l-2.334,0.379c-0.105-0.863-0.413-1.539-0.922-2.023
		c-0.508-0.48-1.226-0.723-2.153-0.723c-1.097,0-1.878,0.215-2.347,0.645c-0.468,0.434-0.701,0.938-0.701,1.518
		c0,0.367,0.098,0.699,0.291,0.994c0.194,0.305,0.5,0.555,0.916,0.758c0.238,0.105,0.942,0.348,2.108,0.727
		c1.688,0.535,2.866,0.973,3.534,1.316c0.666,0.34,1.189,0.84,1.57,1.49c0.38,0.652,0.572,1.463,0.572,2.432
		c0,0.947-0.234,1.84-0.698,2.676c-0.462,0.836-1.134,1.482-2.009,1.941c-0.873,0.457-1.865,0.688-2.97,0.688
		c-1.83,0-3.224-0.453-4.184-1.357C-102.928,65.824-103.54,64.484-103.806,62.705z"/>
	<path fill="#FFFFFF" d="M-82.684,62.705l2.359-0.441c0.133,1.125,0.5,1.988,1.106,2.588c0.605,0.6,1.452,0.9,2.54,0.9
		c1.096,0,1.91-0.266,2.439-0.797c0.53-0.529,0.797-1.156,0.797-1.871c0-0.643-0.236-1.146-0.705-1.516
		c-0.325-0.252-1.14-0.572-2.439-0.963c-1.75-0.525-2.962-0.979-3.641-1.365c-0.676-0.383-1.188-0.914-1.537-1.594
		c-0.351-0.68-0.524-1.43-0.524-2.25c0-0.746,0.144-1.438,0.431-2.074s0.678-1.166,1.174-1.586c0.371-0.326,0.875-0.605,1.518-0.83
		c0.641-0.225,1.328-0.338,2.063-0.338c1.104,0,2.075,0.189,2.909,0.566c0.837,0.379,1.452,0.891,1.851,1.539
		c0.397,0.648,0.672,1.514,0.822,2.598l-2.334,0.379c-0.106-0.863-0.412-1.539-0.923-2.023c-0.508-0.48-1.226-0.723-2.153-0.723
		c-1.097,0-1.879,0.215-2.347,0.645c-0.468,0.434-0.702,0.938-0.702,1.518c0,0.367,0.099,0.699,0.293,0.994
		c0.193,0.305,0.5,0.555,0.916,0.758c0.237,0.105,0.941,0.348,2.107,0.727c1.689,0.535,2.866,0.973,3.534,1.316
		c0.666,0.34,1.19,0.84,1.569,1.49c0.381,0.652,0.572,1.463,0.572,2.432c0,0.947-0.231,1.84-0.697,2.676
		c-0.463,0.836-1.135,1.482-2.009,1.941c-0.874,0.457-1.864,0.688-2.97,0.688c-1.83,0-3.224-0.453-4.184-1.357
		C-81.806,65.824-82.418,64.484-82.684,62.705z"/>
	<path fill="#FFFFFF" d="M-68.152,67.709V44.57h2.389v8.299c1.111-1.535,2.518-2.301,4.214-2.301c1.042,0,1.95,0.244,2.718,0.73
		c0.77,0.492,1.32,1.168,1.652,2.031s0.498,2.117,0.498,3.756v10.623h-2.387V57.086c0-1.42-0.258-2.455-0.775-3.102
		c-0.517-0.646-1.25-0.971-2.196-0.971c-0.706,0-1.372,0.219-1.996,0.656c-0.624,0.436-1.067,1.027-1.334,1.777
		c-0.266,0.744-0.396,1.777-0.396,3.094v9.168H-68.152L-68.152,67.709z"/>
	<path fill="#FFFFFF" d="M-43.86,65.639c-0.884,0.895-1.733,1.527-2.552,1.895c-0.818,0.369-1.695,0.553-2.632,0.553
		c-1.546,0-2.736-0.451-3.566-1.35c-0.831-0.9-1.247-2.049-1.247-3.449c0-0.82,0.155-1.57,0.47-2.25
		c0.312-0.68,0.724-1.223,1.231-1.633s1.082-0.721,1.719-0.934c0.468-0.145,1.176-0.289,2.121-0.426
		c1.929-0.273,3.347-0.598,4.256-0.977c0.009-0.389,0.013-0.637,0.013-0.742c0-1.156-0.224-1.973-0.677-2.445
		c-0.609-0.643-1.516-0.963-2.717-0.963c-1.123,0-1.951,0.234-2.486,0.701c-0.536,0.469-0.93,1.297-1.187,2.486l-2.334-0.377
		c0.212-1.191,0.561-2.148,1.046-2.881c0.486-0.729,1.19-1.291,2.108-1.688c0.92-0.395,1.985-0.592,3.196-0.592
		c1.201,0,2.18,0.168,2.93,0.504c0.75,0.338,1.304,0.76,1.658,1.271c0.354,0.51,0.6,1.154,0.744,1.936
		c0.08,0.482,0.119,1.355,0.119,2.619v3.789c0,2.641,0.051,4.311,0.154,5.01c0.1,0.703,0.303,1.373,0.603,2.016h-2.492
		C-43.628,67.119-43.788,66.43-43.86,65.639z M-44.059,59.295c-0.867,0.422-2.166,0.779-3.897,1.074
		c-0.981,0.168-1.676,0.357-2.082,0.566c-0.408,0.211-0.72,0.52-0.94,0.926c-0.222,0.402-0.332,0.852-0.332,1.348
		c0,0.758,0.242,1.389,0.723,1.893c0.482,0.506,1.186,0.76,2.113,0.76c0.921,0,1.738-0.238,2.455-0.717
		c0.716-0.48,1.241-1.135,1.58-1.967c0.254-0.641,0.384-1.588,0.384-2.84v-1.043H-44.059z"/>
	<path fill="#FFFFFF" d="M-37.972,67.709V50.947h2.147v2.541c0.549-1.189,1.055-1.973,1.519-2.354
		c0.464-0.377,0.974-0.566,1.534-0.566c0.802,0,1.621,0.305,2.451,0.914l-0.822,2.637c-0.584-0.41-1.168-0.617-1.75-0.617
		c-0.521,0-0.989,0.186-1.405,0.561c-0.416,0.373-0.71,0.889-0.888,1.553c-0.267,1.012-0.398,2.115-0.398,3.314v8.775h-2.388V67.709
		z"/>
	<path fill="#FFFFFF" d="M-19.264,62.311l2.466,0.363c-0.39,1.715-1.11,3.047-2.162,3.992c-1.052,0.949-2.396,1.422-4.032,1.422
		c-2.06,0-3.691-0.756-4.9-2.266c-1.205-1.51-1.81-3.625-1.81-6.355c0-2.816,0.61-5.008,1.83-6.563
		c1.22-1.559,2.802-2.336,4.748-2.336c1.882,0,3.42,0.762,4.616,2.287c1.191,1.529,1.79,3.674,1.79,6.443
		c0,0.168-0.004,0.418-0.015,0.754h-10.5c0.088,1.844,0.526,3.254,1.313,4.23c0.786,0.979,1.768,1.469,2.943,1.469
		c0.877,0,1.623-0.273,2.242-0.822C-20.118,64.381-19.626,63.51-19.264,62.311z M-27.1,57.717h7.861
		c-0.105-1.41-0.406-2.467-0.899-3.172c-0.763-1.094-1.748-1.641-2.958-1.641c-1.096,0-2.019,0.436-2.764,1.309
		C-26.605,55.088-27.02,56.256-27.1,57.717z"/>
	<path fill="#FFFFFF" d="M-6.694,69.098l2.32,0.41c0.099,0.854,0.368,1.473,0.81,1.865c0.593,0.525,1.402,0.789,2.427,0.789
		c1.105,0,1.958-0.264,2.56-0.789c0.602-0.529,1.008-1.266,1.221-2.211c0.123-0.578,0.182-1.793,0.172-3.646
		c-1.043,1.463-2.343,2.197-3.896,2.197c-1.936,0-3.434-0.832-4.496-2.496c-1.06-1.66-1.592-3.654-1.592-5.98
		c0-1.602,0.244-3.074,0.73-4.428c0.485-1.354,1.189-2.396,2.115-3.133c0.922-0.736,2.008-1.104,3.254-1.104
		c1.662,0,3.032,0.797,4.11,2.398v-2.02h2.2v14.486c0,2.611-0.225,4.459-0.668,5.549c-0.446,1.088-1.154,1.949-2.122,2.58
		s-2.158,0.947-3.574,0.947c-1.68,0-3.036-0.451-4.072-1.35C-6.229,72.262-6.729,70.908-6.694,69.098z M-4.718,59.029
		c0,2.199,0.368,3.803,1.102,4.813c0.734,1.01,1.654,1.516,2.759,1.516c1.096,0,2.014-0.504,2.758-1.508
		c0.742-1.006,1.113-2.58,1.113-4.727c0-2.051-0.382-3.6-1.146-4.639c-0.767-1.043-1.687-1.563-2.765-1.563
		c-1.062,0-1.961,0.512-2.705,1.541C-4.346,55.484-4.718,57.008-4.718,59.029z"/>
	<path fill="#FFFFFF" d="M8.822,67.709V50.947h2.147v2.541c0.548-1.189,1.054-1.973,1.519-2.354
		c0.464-0.377,0.974-0.566,1.531-0.566c0.805,0,1.623,0.305,2.455,0.914l-0.822,2.637c-0.584-0.41-1.168-0.617-1.75-0.617
		c-0.522,0-0.99,0.186-1.406,0.561c-0.416,0.373-0.712,0.889-0.889,1.553c-0.266,1.012-0.397,2.115-0.397,3.314v8.775H8.822V67.709z
		"/>
	<path fill="#FFFFFF" d="M27.53,62.311l2.466,0.363c-0.391,1.715-1.11,3.047-2.162,3.992c-1.052,0.949-2.396,1.422-4.032,1.422
		c-2.06,0-3.691-0.756-4.899-2.266s-1.811-3.625-1.811-6.355c0-2.816,0.61-5.008,1.83-6.563c1.221-1.559,2.803-2.336,4.748-2.336
		c1.882,0,3.42,0.762,4.616,2.287c1.192,1.529,1.788,3.674,1.788,6.443c0,0.168-0.004,0.418-0.012,0.754h-10.5
		c0.088,1.844,0.525,3.254,1.312,4.23c0.786,0.979,1.769,1.469,2.944,1.469c0.876,0,1.621-0.273,2.242-0.822
		C26.676,64.381,27.166,63.51,27.53,62.311z M19.694,57.717h7.861c-0.105-1.41-0.405-2.467-0.899-3.172
		c-0.762-1.094-1.748-1.641-2.958-1.641c-1.095,0-2.019,0.436-2.763,1.309C20.186,55.088,19.771,56.256,19.694,57.717z"/>
	<path fill="#FFFFFF" d="M42.182,65.639c-0.884,0.895-1.733,1.527-2.552,1.895c-0.817,0.369-1.696,0.553-2.632,0.553
		c-1.546,0-2.736-0.451-3.566-1.35c-0.832-0.9-1.248-2.049-1.248-3.449c0-0.82,0.156-1.57,0.471-2.25
		c0.312-0.68,0.724-1.223,1.231-1.633c0.509-0.41,1.082-0.721,1.718-0.934c0.469-0.145,1.177-0.289,2.123-0.426
		c1.928-0.273,3.346-0.598,4.256-0.977c0.008-0.389,0.012-0.637,0.012-0.742c0-1.156-0.225-1.973-0.676-2.445
		c-0.61-0.643-1.517-0.963-2.719-0.963c-1.121,0-1.949,0.234-2.485,0.701c-0.536,0.469-0.931,1.297-1.187,2.486l-2.334-0.377
		c0.212-1.191,0.561-2.148,1.046-2.881c0.486-0.729,1.19-1.291,2.108-1.688c0.92-0.395,1.986-0.592,3.196-0.592
		c1.202,0,2.18,0.168,2.93,0.504c0.75,0.338,1.304,0.76,1.658,1.271c0.354,0.51,0.6,1.154,0.743,1.936
		c0.08,0.482,0.121,1.355,0.121,2.619v3.789c0,2.641,0.05,4.311,0.153,5.01c0.101,0.703,0.302,1.373,0.603,2.016H42.66
		C42.412,67.119,42.252,66.43,42.182,65.639z M41.984,59.295c-0.868,0.422-2.166,0.779-3.898,1.074
		c-0.982,0.168-1.676,0.357-2.082,0.566c-0.406,0.211-0.72,0.52-0.939,0.926c-0.223,0.402-0.332,0.852-0.332,1.348
		c0,0.758,0.242,1.389,0.722,1.893c0.481,0.506,1.186,0.76,2.114,0.76c0.92,0,1.737-0.238,2.453-0.717
		c0.717-0.48,1.242-1.135,1.58-1.967c0.254-0.641,0.385-1.588,0.385-2.84v-1.043H41.984z"/>
	<path fill="#FFFFFF" d="M53.306,65.168l0.345,2.51c-0.672,0.168-1.274,0.252-1.805,0.252c-0.865,0-1.54-0.164-2.014-0.49
		c-0.479-0.324-0.814-0.754-1.008-1.285c-0.194-0.531-0.292-1.65-0.292-3.355v-9.643h-1.75v-2.209h1.75v-4.152l2.374-1.705v5.857
		h2.399v2.209h-2.399v9.799c0,0.811,0.042,1.332,0.126,1.563c0.084,0.232,0.222,0.416,0.409,0.553
		c0.192,0.135,0.465,0.205,0.816,0.205C52.523,65.279,52.872,65.24,53.306,65.168z"/>
	<path fill="#FFFFFF" d="M63.186,67.709V50.947h2.135v2.352c0.441-0.822,1.029-1.482,1.764-1.982
		c0.734-0.498,1.57-0.748,2.506-0.748c1.042,0,1.898,0.258,2.566,0.773c0.666,0.516,1.138,1.236,1.412,2.162
		c1.113-1.959,2.563-2.936,4.35-2.936c1.396,0,2.47,0.457,3.223,1.379c0.75,0.922,1.125,2.34,1.125,4.254v11.508h-2.373V57.148
		c0-1.135-0.078-1.955-0.232-2.455c-0.156-0.5-0.436-0.902-0.842-1.207c-0.408-0.307-0.887-0.457-1.433-0.457
		c-0.989,0-1.812,0.391-2.466,1.176c-0.656,0.785-0.982,2.039-0.982,3.766v9.738h-2.386V56.818c0-1.266-0.196-2.211-0.584-2.842
		c-0.39-0.631-1.025-0.947-1.909-0.947c-0.673,0-1.293,0.209-1.864,0.631c-0.57,0.42-0.982,1.037-1.24,1.846
		c-0.258,0.811-0.384,1.979-0.384,3.504v8.699H63.186z"/>
	<path fill="#FFFFFF" d="M84.918,59.328c0-3.107,0.725-5.404,2.174-6.898c1.21-1.242,2.687-1.861,4.428-1.861
		c1.937,0,3.519,0.754,4.746,2.264c1.229,1.51,1.842,3.596,1.842,6.258c0,2.158-0.27,3.857-0.815,5.092
		c-0.542,1.236-1.334,2.195-2.372,2.879c-1.04,0.686-2.172,1.027-3.402,1.027c-1.972,0-3.563-0.752-4.779-2.258
		C85.525,64.326,84.918,62.158,84.918,59.328z M87.372,59.328c0,2.146,0.392,3.754,1.18,4.82c0.788,1.068,1.778,1.604,2.97,1.604
		c1.185,0,2.17-0.539,2.957-1.613c0.787-1.07,1.18-2.707,1.18-4.906c0-2.072-0.396-3.643-1.187-4.711
		c-0.792-1.066-1.773-1.602-2.95-1.602c-1.193,0-2.184,0.531-2.97,1.594S87.372,57.182,87.372,59.328z"/>
	<path fill="#FFFFFF" d="M100.908,67.709V50.947h2.134v2.352c0.442-0.822,1.03-1.482,1.764-1.982
		c0.734-0.498,1.57-0.748,2.507-0.748c1.041,0,1.896,0.258,2.565,0.773c0.668,0.516,1.138,1.236,1.412,2.162
		c1.114-1.959,2.562-2.936,4.348-2.936c1.396,0,2.47,0.457,3.222,1.379c0.75,0.922,1.127,2.34,1.127,4.254v11.508h-2.374V57.148
		c0-1.135-0.076-1.955-0.232-2.455c-0.155-0.5-0.436-0.902-0.842-1.207c-0.408-0.307-0.884-0.457-1.435-0.457
		c-0.989,0-1.81,0.391-2.463,1.176c-0.656,0.785-0.982,2.039-0.982,3.766v9.738h-2.387V56.818c0-1.266-0.195-2.211-0.584-2.842
		c-0.39-0.631-1.025-0.947-1.909-0.947c-0.673,0-1.292,0.209-1.864,0.631c-0.57,0.42-0.982,1.037-1.24,1.846
		c-0.258,0.811-0.384,1.979-0.384,3.504v8.699H100.908z"/>
	<path fill="#FFFFFF" d="M133.17,62.311l2.466,0.363c-0.388,1.715-1.109,3.047-2.161,3.992c-1.053,0.949-2.396,1.422-4.03,1.422
		c-2.061,0-3.692-0.756-4.9-2.266s-1.81-3.625-1.81-6.355c0-2.816,0.609-5.008,1.832-6.563c1.218-1.559,2.8-2.336,4.746-2.336
		c1.884,0,3.422,0.762,4.613,2.287c1.194,1.529,1.792,3.674,1.792,6.443c0,0.168-0.004,0.418-0.012,0.754h-10.5
		c0.086,1.844,0.524,3.254,1.312,4.23c0.787,0.979,1.769,1.469,2.944,1.469c0.874,0,1.62-0.273,2.238-0.822
		S132.806,63.51,133.17,62.311z M125.334,57.717h7.864c-0.106-1.41-0.408-2.467-0.902-3.172c-0.76-1.094-1.744-1.641-2.958-1.641
		c-1.094,0-2.018,0.436-2.764,1.309C125.826,55.088,125.412,56.256,125.334,57.717z"/>
	<path fill="#FFFFFF" d="M138.63,67.709V50.947h2.15v2.381c1.034-1.842,2.528-2.762,4.481-2.762c0.846,0,1.628,0.182,2.338,0.541
		c0.713,0.363,1.244,0.84,1.601,1.43c0.352,0.59,0.6,1.291,0.739,2.102c0.091,0.525,0.133,1.445,0.133,2.762v10.305h-2.387V57.508
		c0-1.156-0.092-2.021-0.279-2.596c-0.185-0.574-0.512-1.031-0.986-1.375c-0.472-0.34-1.027-0.514-1.664-0.514
		c-1.016,0-1.894,0.385-2.63,1.152c-0.74,0.771-1.108,2.227-1.108,4.373v9.156h-2.388V67.709z"/>
	<path fill="#FFFFFF" d="M158.945,65.168l0.344,2.51c-0.672,0.168-1.271,0.252-1.801,0.252c-0.867,0-1.539-0.164-2.014-0.49
		c-0.48-0.324-0.814-0.754-1.01-1.285s-0.291-1.65-0.291-3.355v-9.643h-1.752v-2.209h1.752v-4.152l2.373-1.705v5.857h2.398v2.209
		h-2.398v9.799c0,0.811,0.043,1.332,0.127,1.563c0.084,0.232,0.221,0.416,0.41,0.553c0.189,0.135,0.463,0.205,0.814,0.205
		C158.162,65.279,158.514,65.24,158.945,65.168z"/>
	<path fill="#FFFFFF" d="M160.326,62.705l2.359-0.441c0.131,1.125,0.5,1.988,1.107,2.588c0.605,0.6,1.453,0.9,2.539,0.9
		c1.098,0,1.91-0.266,2.439-0.797c0.533-0.531,0.797-1.156,0.797-1.871c0-0.643-0.234-1.146-0.705-1.516
		c-0.328-0.252-1.141-0.572-2.439-0.963c-1.75-0.525-2.963-0.979-3.639-1.365c-0.676-0.383-1.189-0.914-1.539-1.594
		s-0.523-1.43-0.523-2.25c0-0.746,0.141-1.438,0.432-2.074c0.287-0.637,0.676-1.166,1.172-1.586c0.373-0.326,0.877-0.605,1.52-0.83
		c0.639-0.225,1.328-0.338,2.063-0.338c1.104,0,2.072,0.189,2.908,0.566c0.836,0.379,1.453,0.891,1.85,1.539
		s0.674,1.514,0.824,2.598l-2.334,0.379c-0.109-0.863-0.416-1.539-0.924-2.023c-0.51-0.48-1.225-0.723-2.154-0.723
		c-1.098,0-1.879,0.215-2.346,0.645c-0.469,0.434-0.705,0.938-0.705,1.518c0,0.367,0.098,0.699,0.293,0.994
		c0.193,0.305,0.498,0.555,0.914,0.758c0.234,0.105,0.939,0.348,2.107,0.727c1.689,0.535,2.869,0.973,3.533,1.316
		c0.668,0.34,1.193,0.84,1.574,1.49c0.377,0.652,0.566,1.463,0.566,2.432c0,0.947-0.23,1.84-0.693,2.676
		c-0.467,0.836-1.135,1.482-2.01,1.941c-0.877,0.457-1.867,0.688-2.971,0.688c-1.83,0-3.225-0.453-4.182-1.357
		C161.203,65.824,160.588,64.484,160.326,62.705z"/>
	<path fill="#FFFFFF" d="M175.48,67.709v-3.238h2.719v3.238c0,1.189-0.18,2.146-0.533,2.879c-0.352,0.73-0.914,1.297-1.684,1.695
		l-0.662-1.213c0.502-0.264,0.875-0.65,1.113-1.16s0.373-1.244,0.398-2.201H175.48z"/>
	<path fill="#FFFFFF" d="M190.145,67.709V44.57h2.574v20.408h9.57v2.73H190.145z"/>
	<path fill="#FFFFFF" d="M214.689,62.311l2.467,0.363c-0.389,1.715-1.109,3.047-2.162,3.992c-1.053,0.949-2.396,1.422-4.033,1.422
		c-2.057,0-3.691-0.756-4.898-2.266c-1.209-1.51-1.809-3.625-1.809-6.355c0-2.816,0.609-5.008,1.83-6.563
		c1.217-1.559,2.799-2.336,4.746-2.336c1.881,0,3.422,0.762,4.615,2.287c1.195,1.529,1.791,3.674,1.791,6.443
		c0,0.168-0.004,0.418-0.012,0.754h-10.502c0.086,1.844,0.523,3.254,1.313,4.23c0.787,0.979,1.766,1.469,2.943,1.469
		c0.873,0,1.621-0.273,2.236-0.822C213.836,64.381,214.326,63.51,214.689,62.311z M206.852,57.717h7.863
		c-0.105-1.41-0.406-2.467-0.9-3.172c-0.76-1.094-1.744-1.641-2.959-1.641c-1.094,0-2.018,0.436-2.764,1.309
		C207.344,55.088,206.932,56.256,206.852,57.717z"/>
	<path fill="#FFFFFF" d="M225.363,65.168l0.344,2.51c-0.672,0.168-1.271,0.252-1.801,0.252c-0.867,0-1.539-0.164-2.016-0.49
		c-0.479-0.324-0.813-0.754-1.008-1.285c-0.197-0.531-0.293-1.65-0.293-3.355v-9.643h-1.752v-2.209h1.752v-4.152l2.375-1.705v5.857
		h2.398v2.209h-2.398v9.799c0,0.811,0.041,1.332,0.125,1.563c0.084,0.232,0.221,0.416,0.41,0.553
		c0.189,0.135,0.461,0.205,0.816,0.205C224.58,65.279,224.93,65.24,225.363,65.168z"/>
	<path fill="#FFFFFF" d="M227.551,47.631v-3.297h2.559v2.604c0,1.41-0.135,2.428-0.41,3.047c-0.379,0.852-0.971,1.494-1.777,1.926
		l-0.584-1.123c0.479-0.23,0.834-0.598,1.068-1.098c0.23-0.5,0.365-1.186,0.391-2.059H227.551z"/>
	<path fill="#FFFFFF" d="M232.285,62.705l2.361-0.441c0.129,1.125,0.5,1.988,1.107,2.588c0.605,0.6,1.453,0.9,2.539,0.9
		c1.098,0,1.91-0.266,2.439-0.797c0.531-0.531,0.795-1.156,0.795-1.871c0-0.643-0.234-1.146-0.701-1.516
		c-0.33-0.252-1.143-0.572-2.443-0.963c-1.75-0.525-2.961-0.979-3.637-1.365c-0.676-0.383-1.191-0.914-1.539-1.594
		c-0.352-0.68-0.525-1.43-0.525-2.25c0-0.746,0.143-1.438,0.432-2.074s0.676-1.166,1.176-1.586c0.371-0.326,0.875-0.605,1.518-0.83
		c0.639-0.225,1.326-0.338,2.061-0.338c1.105,0,2.072,0.189,2.91,0.566c0.836,0.379,1.453,0.891,1.848,1.539
		c0.398,0.648,0.676,1.514,0.824,2.598l-2.332,0.379c-0.109-0.863-0.418-1.539-0.926-2.023c-0.506-0.48-1.223-0.723-2.152-0.723
		c-1.098,0-1.877,0.215-2.348,0.645c-0.469,0.434-0.703,0.938-0.703,1.518c0,0.367,0.098,0.699,0.293,0.994
		c0.195,0.305,0.5,0.555,0.914,0.758c0.236,0.105,0.938,0.348,2.105,0.727c1.691,0.535,2.869,0.973,3.535,1.316
		c0.668,0.34,1.191,0.84,1.574,1.49c0.379,0.652,0.568,1.463,0.568,2.432c0,0.947-0.232,1.84-0.697,2.676
		c-0.463,0.836-1.131,1.482-2.01,1.941c-0.875,0.457-1.865,0.688-2.971,0.688c-1.828,0-3.223-0.453-4.18-1.357
		C233.16,65.824,232.547,64.484,232.285,62.705z"/>
	<path fill="#FFFFFF" d="M253.408,62.705l2.359-0.441c0.133,1.125,0.5,1.988,1.107,2.588s1.455,0.9,2.541,0.9
		c1.098,0,1.91-0.266,2.438-0.797c0.533-0.531,0.799-1.156,0.799-1.871c0-0.643-0.234-1.146-0.703-1.516
		c-0.328-0.252-1.145-0.572-2.443-0.963c-1.75-0.525-2.959-0.979-3.639-1.365c-0.676-0.383-1.188-0.914-1.539-1.594
		c-0.35-0.68-0.523-1.43-0.523-2.25c0-0.746,0.141-1.438,0.432-2.074c0.287-0.637,0.676-1.166,1.174-1.586
		c0.371-0.326,0.875-0.605,1.518-0.83c0.639-0.225,1.328-0.338,2.063-0.338c1.105,0,2.072,0.189,2.91,0.566
		c0.836,0.379,1.451,0.891,1.85,1.539c0.396,0.648,0.672,1.514,0.822,2.598l-2.334,0.379c-0.109-0.863-0.414-1.539-0.922-2.023
		c-0.508-0.48-1.227-0.723-2.154-0.723c-1.098,0-1.877,0.215-2.348,0.645c-0.471,0.434-0.701,0.938-0.701,1.518
		c0,0.367,0.094,0.699,0.291,0.994c0.195,0.305,0.5,0.555,0.916,0.758c0.234,0.105,0.939,0.348,2.107,0.727
		c1.689,0.535,2.869,0.973,3.533,1.316c0.668,0.34,1.193,0.84,1.574,1.49c0.377,0.652,0.566,1.463,0.566,2.432
		c0,0.947-0.23,1.84-0.695,2.676s-1.133,1.482-2.01,1.941c-0.877,0.457-1.865,0.688-2.969,0.688c-1.832,0-3.225-0.453-4.184-1.357
		C254.285,65.824,253.672,64.484,253.408,62.705z"/>
	<path fill="#FFFFFF" d="M267.939,67.709V44.57h2.389v8.299c1.113-1.535,2.518-2.301,4.215-2.301c1.043,0,1.951,0.244,2.717,0.73
		c0.771,0.492,1.32,1.168,1.652,2.031s0.498,2.117,0.498,3.756v10.623h-2.389V57.086c0-1.42-0.258-2.455-0.777-3.102
		c-0.516-0.646-1.246-0.971-2.193-0.971c-0.709,0-1.375,0.219-1.996,0.656c-0.623,0.436-1.066,1.027-1.332,1.777
		c-0.266,0.744-0.396,1.777-0.396,3.094v9.168H267.939L267.939,67.709z"/>
	<path fill="#FFFFFF" d="M292.232,65.639c-0.883,0.895-1.736,1.527-2.553,1.895c-0.816,0.369-1.695,0.553-2.629,0.553
		c-1.547,0-2.736-0.451-3.568-1.35c-0.83-0.9-1.246-2.049-1.246-3.449c0-0.82,0.158-1.57,0.471-2.25
		c0.311-0.68,0.721-1.223,1.232-1.633c0.51-0.41,1.08-0.721,1.715-0.934c0.471-0.145,1.176-0.289,2.123-0.426
		c1.926-0.273,3.348-0.598,4.258-0.977c0.008-0.389,0.012-0.637,0.012-0.742c0-1.156-0.225-1.973-0.676-2.445
		c-0.611-0.643-1.516-0.963-2.717-0.963c-1.123,0-1.951,0.234-2.486,0.701c-0.535,0.469-0.93,1.297-1.188,2.486l-2.334-0.377
		c0.211-1.191,0.561-2.148,1.045-2.881c0.486-0.729,1.191-1.291,2.109-1.688c0.918-0.395,1.984-0.592,3.199-0.592
		c1.203,0,2.178,0.168,2.93,0.504c0.75,0.338,1.303,0.76,1.658,1.271c0.352,0.51,0.6,1.154,0.74,1.936
		c0.08,0.482,0.121,1.355,0.121,2.619v3.789c0,2.641,0.051,4.311,0.15,5.01c0.104,0.703,0.303,1.373,0.607,2.016h-2.496
		C292.461,67.119,292.301,66.43,292.232,65.639z M292.035,59.295c-0.867,0.422-2.164,0.779-3.898,1.074
		c-0.98,0.168-1.676,0.357-2.082,0.566c-0.406,0.211-0.719,0.52-0.941,0.926c-0.221,0.402-0.332,0.852-0.332,1.348
		c0,0.758,0.238,1.389,0.721,1.893c0.484,0.506,1.188,0.76,2.115,0.76c0.922,0,1.738-0.238,2.455-0.717
		c0.717-0.48,1.242-1.135,1.578-1.967c0.256-0.641,0.385-1.588,0.385-2.84V59.295z"/>
	<path fill="#FFFFFF" d="M298.117,67.709V50.947h2.15v2.541c0.547-1.189,1.055-1.973,1.518-2.354
		c0.465-0.377,0.975-0.566,1.533-0.566c0.803,0,1.623,0.305,2.453,0.914l-0.822,2.637c-0.582-0.41-1.164-0.617-1.75-0.617
		c-0.521,0-0.988,0.186-1.402,0.561c-0.418,0.373-0.713,0.889-0.889,1.553c-0.266,1.012-0.398,2.115-0.398,3.314v8.775h-2.393
		V67.709z"/>
	<path fill="#FFFFFF" d="M316.828,62.311l2.469,0.363c-0.391,1.715-1.113,3.047-2.164,3.992c-1.051,0.949-2.395,1.422-4.031,1.422
		c-2.059,0-3.693-0.756-4.898-2.266c-1.207-1.51-1.811-3.625-1.811-6.355c0-2.816,0.611-5.008,1.832-6.563
		c1.215-1.559,2.799-2.336,4.744-2.336c1.883,0,3.424,0.762,4.615,2.287c1.193,1.529,1.791,3.674,1.791,6.443
		c0,0.168-0.004,0.418-0.012,0.754h-10.5c0.086,1.844,0.523,3.254,1.311,4.23c0.787,0.979,1.768,1.469,2.943,1.469
		c0.875,0,1.623-0.273,2.238-0.822C315.977,64.381,316.465,63.51,316.828,62.311z M308.992,57.717h7.863
		c-0.105-1.41-0.406-2.467-0.902-3.172c-0.758-1.094-1.742-1.641-2.957-1.641c-1.094,0-2.018,0.436-2.764,1.309
		C309.484,55.088,309.072,56.256,308.992,57.717z"/>
	<path fill="#FFFFFF" d="M329.398,69.098l2.32,0.41c0.096,0.854,0.367,1.473,0.809,1.865c0.594,0.525,1.398,0.789,2.426,0.789
		c1.105,0,1.957-0.264,2.559-0.789c0.602-0.529,1.008-1.266,1.221-2.211c0.123-0.578,0.182-1.793,0.17-3.646
		c-1.043,1.463-2.34,2.197-3.898,2.197c-1.936,0-3.432-0.832-4.492-2.496c-1.063-1.66-1.592-3.654-1.592-5.98
		c0-1.602,0.242-3.074,0.729-4.428c0.484-1.354,1.191-2.396,2.115-3.133s2.01-1.104,3.254-1.104c1.662,0,3.033,0.797,4.111,2.398
		v-2.02h2.203v14.486c0,2.611-0.223,4.459-0.67,5.549c-0.447,1.088-1.152,1.949-2.123,2.58c-0.965,0.631-2.156,0.947-3.574,0.947
		c-1.676,0-3.035-0.451-4.068-1.35C329.863,72.262,329.363,70.908,329.398,69.098z M331.375,59.029c0,2.199,0.369,3.803,1.104,4.813
		c0.729,1.01,1.65,1.516,2.756,1.516c1.098,0,2.016-0.504,2.758-1.508c0.744-1.006,1.115-2.58,1.115-4.727
		c0-2.051-0.383-3.6-1.146-4.639c-0.766-1.043-1.688-1.563-2.766-1.563c-1.059,0-1.961,0.512-2.705,1.541
		C331.744,55.484,331.375,57.008,331.375,59.029z"/>
	<path fill="#FFFFFF" d="M344.91,67.709V50.947h2.15v2.541c0.545-1.189,1.053-1.973,1.518-2.354
		c0.465-0.377,0.973-0.566,1.531-0.566c0.805,0,1.625,0.305,2.455,0.914l-0.822,2.637c-0.584-0.41-1.166-0.617-1.75-0.617
		c-0.523,0-0.988,0.186-1.404,0.561c-0.416,0.373-0.713,0.889-0.889,1.553c-0.268,1.012-0.398,2.115-0.398,3.314v8.775h-2.391
		V67.709z"/>
	<path fill="#FFFFFF" d="M363.621,62.311l2.469,0.363c-0.391,1.715-1.111,3.047-2.162,3.992c-1.053,0.949-2.396,1.422-4.031,1.422
		c-2.059,0-3.693-0.756-4.9-2.266s-1.811-3.625-1.811-6.355c0-2.816,0.611-5.008,1.832-6.563c1.217-1.559,2.801-2.336,4.746-2.336
		c1.883,0,3.422,0.762,4.615,2.287c1.193,1.529,1.791,3.674,1.791,6.443c0,0.168-0.006,0.418-0.014,0.754h-10.5
		c0.086,1.844,0.523,3.254,1.313,4.23c0.785,0.979,1.768,1.469,2.943,1.469c0.873,0,1.623-0.273,2.238-0.822
		C362.77,64.381,363.258,63.51,363.621,62.311z M355.785,57.717h7.865c-0.107-1.41-0.408-2.467-0.902-3.172
		c-0.76-1.094-1.744-1.641-2.959-1.641c-1.094,0-2.018,0.436-2.766,1.309C356.277,55.088,355.863,56.256,355.785,57.717z"/>
	<path fill="#FFFFFF" d="M378.273,65.639c-0.881,0.895-1.734,1.527-2.551,1.895c-0.818,0.369-1.697,0.553-2.631,0.553
		c-1.545,0-2.736-0.451-3.568-1.35c-0.83-0.9-1.246-2.049-1.246-3.449c0-0.82,0.158-1.57,0.471-2.25s0.721-1.223,1.234-1.633
		c0.508-0.41,1.08-0.721,1.713-0.934c0.471-0.145,1.176-0.289,2.125-0.426c1.926-0.273,3.346-0.598,4.256-0.977
		c0.008-0.389,0.014-0.637,0.014-0.742c0-1.156-0.227-1.973-0.676-2.445c-0.613-0.643-1.516-0.963-2.719-0.963
		c-1.123,0-1.951,0.234-2.484,0.701c-0.537,0.469-0.932,1.297-1.189,2.486l-2.334-0.377c0.213-1.191,0.563-2.148,1.047-2.881
		c0.484-0.729,1.189-1.291,2.109-1.688c0.918-0.395,1.984-0.592,3.199-0.592c1.201,0,2.176,0.168,2.93,0.504
		c0.75,0.338,1.301,0.76,1.656,1.271c0.354,0.51,0.602,1.154,0.742,1.936c0.078,0.482,0.119,1.355,0.119,2.619v3.789
		c0,2.641,0.053,4.311,0.15,5.01c0.105,0.703,0.303,1.373,0.607,2.016h-2.494C378.504,67.119,378.342,66.43,378.273,65.639z
		 M378.074,59.295c-0.867,0.422-2.166,0.779-3.898,1.074c-0.98,0.168-1.676,0.357-2.08,0.566c-0.408,0.211-0.721,0.52-0.943,0.926
		c-0.221,0.402-0.33,0.852-0.33,1.348c0,0.758,0.238,1.389,0.721,1.893c0.482,0.506,1.189,0.76,2.115,0.76
		c0.92,0,1.738-0.238,2.453-0.717c0.717-0.48,1.242-1.135,1.578-1.967c0.256-0.641,0.385-1.588,0.385-2.84V59.295z"/>
	<path fill="#FFFFFF" d="M389.396,65.168l0.344,2.51c-0.67,0.168-1.271,0.252-1.801,0.252c-0.865,0-1.539-0.164-2.016-0.49
		c-0.479-0.324-0.811-0.754-1.008-1.285s-0.291-1.65-0.291-3.355v-9.643h-1.754v-2.209h1.754v-4.152l2.373-1.705v5.857h2.398v2.209
		h-2.398v9.799c0,0.811,0.041,1.332,0.127,1.563c0.082,0.232,0.219,0.416,0.41,0.553c0.189,0.135,0.461,0.205,0.814,0.205
		C388.617,65.279,388.965,65.24,389.396,65.168z"/>
	<path fill="#FFFFFF" d="M399.846,67.709V53.156h-2.107v-2.209h2.107v-1.785c0-1.125,0.084-1.961,0.252-2.508
		c0.229-0.738,0.633-1.334,1.213-1.793c0.576-0.457,1.389-0.686,2.434-0.686c0.67,0,1.414,0.094,2.225,0.283l-0.355,2.479
		c-0.496-0.105-0.963-0.158-1.406-0.158c-0.725,0-1.236,0.184-1.539,0.553c-0.297,0.369-0.453,1.057-0.453,2.068v1.547h2.746v2.207
		h-2.746v14.551h-2.369V67.709z"/>
	<path fill="#FFFFFF" d="M405.932,59.328c0-3.107,0.725-5.404,2.174-6.898c1.213-1.242,2.688-1.861,4.43-1.861
		c1.938,0,3.52,0.754,4.746,2.264c1.23,1.51,1.844,3.596,1.844,6.258c0,2.158-0.271,3.857-0.814,5.092
		c-0.545,1.236-1.334,2.195-2.375,2.879c-1.039,0.686-2.172,1.027-3.4,1.027c-1.969,0-3.563-0.752-4.779-2.258
		C406.539,64.326,405.932,62.158,405.932,59.328z M408.383,59.328c0,2.146,0.393,3.754,1.182,4.82
		c0.787,1.068,1.775,1.604,2.971,1.604c1.184,0,2.168-0.539,2.957-1.613c0.785-1.07,1.18-2.707,1.18-4.906
		c0-2.072-0.396-3.643-1.188-4.711c-0.789-1.066-1.773-1.602-2.949-1.602c-1.197,0-2.186,0.531-2.971,1.594
		C408.777,55.576,408.383,57.182,408.383,59.328z"/>
	<path fill="#FFFFFF" d="M421.039,59.328c0-3.107,0.721-5.404,2.172-6.898c1.211-1.242,2.689-1.861,4.43-1.861
		c1.938,0,3.518,0.754,4.746,2.264c1.23,1.51,1.844,3.596,1.844,6.258c0,2.158-0.27,3.857-0.814,5.092
		c-0.545,1.236-1.334,2.195-2.373,2.879c-1.041,0.686-2.176,1.027-3.402,1.027c-1.969,0-3.564-0.752-4.781-2.258
		C421.645,64.326,421.039,62.158,421.039,59.328z M423.488,59.328c0,2.146,0.395,3.754,1.182,4.82
		c0.787,1.068,1.775,1.604,2.967,1.604c1.188,0,2.174-0.539,2.959-1.613c0.787-1.07,1.182-2.707,1.182-4.906
		c0-2.072-0.395-3.643-1.189-4.711c-0.791-1.066-1.773-1.602-2.951-1.602c-1.191,0-2.18,0.531-2.967,1.594
		S423.488,57.182,423.488,59.328z"/>
	<path fill="#FFFFFF" d="M446.162,67.709v-2.117c-0.893,1.662-2.205,2.494-3.939,2.494c-1.121,0-2.154-0.369-3.098-1.105
		c-0.939-0.736-1.668-1.768-2.186-3.086c-0.518-1.32-0.775-2.838-0.775-4.553c0-1.674,0.234-3.191,0.703-4.555
		c0.467-1.361,1.172-2.406,2.107-3.131c0.939-0.725,1.986-1.088,3.143-1.088c0.852,0,1.605,0.211,2.27,0.637
		c0.66,0.426,1.201,0.98,1.617,1.664V44.57h2.375v23.139H446.162z M438.617,59.344c0,2.146,0.381,3.75,1.141,4.814
		c0.762,1.063,1.658,1.594,2.691,1.594c1.045,0,1.93-0.508,2.66-1.523c0.729-1.016,1.094-2.564,1.094-4.648
		c0-2.293-0.373-3.977-1.115-5.051s-1.656-1.609-2.744-1.609c-1.063,0-1.945,0.516-2.658,1.547
		C438.975,55.498,438.617,57.123,438.617,59.344z"/>
</g>
<g>
	<path fill="#FFFFFF" d="M-143.288,1.904c-0.184,0.355-0.502,0.68-0.978,1.033L-150,4.102c0.21-0.386,0.582-0.773,1.11-1.164
		c1.823-0.355,3.622-0.709,5.443-1.129L-143.288,1.904z M-142.574,0.094c-0.186,0.358-0.529,0.68-0.978,1.034l-5.763,1.166
		c0.211-0.39,0.582-0.776,1.11-1.166c1.798-0.354,3.62-0.71,5.444-1.128L-142.574,0.094z"/>
	<path fill="#FFFFFF" d="M-141.966,29.756h-2.06c-2.404,0-3.912-1.81-3.912-4.814V13.958l-0.45-4.136l3.092-0.87v15.25
		c0,1.776,0.634,2.649,1.901,2.649h1.427v2.904H-141.966z"/>
	<path fill="#FFFFFF" d="M-124.18,29.756h-6.29c-0.792,0-1.718-0.292-2.75-0.838c-0.185,0.128-0.792,0.16-1.824,0.128
		c-0.767,0-1.136,0.226-1.162,0.71h-6.526V26.85h6.131c0.344,0,0.662-0.033,1.004-0.128c-0.608-0.647-2.063-2.327-4.389-5.04
		c0-1.52,0.662-2.91,1.982-4.136c1.348-1.228,2.96-1.842,4.836-1.842c1.85,0,3.462,0.614,4.836,1.874
		c1.294,1.193,1.93,2.584,1.93,4.104c-0.264,0.29-1.746,1.971-4.439,5.04c0.342,0.095,0.712,0.128,1.056,0.128h5.603v2.906H-124.18z
		 M-129.254,21.1c-0.078-0.646-0.422-1.228-1.03-1.712c-0.766-0.582-1.744-0.874-2.88-0.874c-1.138,0-2.088,0.292-2.855,0.874
		c-0.635,0.546-1.002,1.097-1.082,1.712c0.871,1.034,2.166,2.553,3.938,4.555L-129.254,21.1z"/>
	<path fill="#FFFFFF" d="M-117.76,25.072c0,2.876-1.506,4.684-3.912,4.684h-4.042V26.85h3.41c1.294,0,1.93-0.842,1.93-2.554V21.1
		l-0.45-4.134l3.066-0.842v8.948H-117.76z M-116.914,14.023h-7.85v-2.002h1.214c0-2.746,1.216-4.621,3.33-4.621
		c0.872,0,1.691,0.355,2.512,1.067c-0.132,0.418-0.317,0.968-0.502,1.616c-0.448-0.486-0.952-0.744-1.479-0.744
		c-1.19,0.066-1.797,0.971-1.771,2.682h1.638l1.506-0.164L-116.914,14.023z"/>
	<path fill="#FFFFFF" d="M-111.525,8.886l-0.293,4.298v16.572h-2.615v-16.54l-0.396-4.006L-111.525,8.886z"/>
	<path fill="#FFFFFF" d="M-104.496,28.4c0,4.361-1.904,7.205-5.682,8.498l-0.555-1.261c2.433-0.938,3.648-3.004,3.648-6.233
		l-0.026-8.11l-0.529-4.33l3.146-0.874V28.4H-104.496z"/>
	<path fill="#FFFFFF" d="M-92.208,1.904c-0.187,0.355-0.502,0.678-0.978,1.033l-5.734,1.164c0.212-0.386,0.582-0.773,1.109-1.164
		c1.824-0.355,3.623-0.709,5.444-1.129L-92.208,1.904z M-91.496,0.094c-0.184,0.358-0.527,0.678-0.979,1.034l-5.762,1.166
		c0.213-0.39,0.582-0.776,1.11-1.166c1.798-0.356,3.62-0.71,5.446-1.128L-91.496,0.094z"/>
	<path fill="#FFFFFF" d="M-90.888,29.756h-2.061c-2.405,0-3.912-1.81-3.912-4.814V13.958l-0.448-4.136l3.093-0.87v15.25
		c0,1.776,0.634,2.649,1.901,2.649h1.427V29.756z"/>
	<path fill="#FFFFFF" d="M-78.096,16.22l-0.238,3.36v4.49c0,3.779-1.982,5.688-5.92,5.688h-7.374v-2.906h4.016
		c-0.527-1.1-0.792-2.262-0.792-3.457c0-2.391,0.582-4.299,1.744-5.75c1.164-1.457,2.75-2.166,4.784-2.166
		C-80.607,15.479-79.338,15.736-78.096,16.22z M-80.872,19.806l-0.212-1.874c-0.396-0.16-0.872-0.226-1.376-0.226
		c-2.22,0-3.33,1.682-3.33,5.072c0,2.714,0.767,4.071,2.272,4.071c1.875,0,2.83-1.455,2.83-4.33
		C-80.686,21.778-80.74,20.874-80.872,19.806z"/>
	<path fill="#FFFFFF" d="M-68.744,29.756h-2.062c-2.406,0-3.912-1.81-3.912-4.814V13.958l-0.448-4.136l3.092-0.87v15.25
		c0,1.776,0.635,2.649,1.902,2.649h1.426v2.904H-68.744z"/>
	<path fill="#FFFFFF" d="M-50.958,29.756h-6.29c-0.794,0-1.718-0.292-2.75-0.838c-0.184,0.128-0.792,0.16-1.824,0.128
		c-0.766,0-1.136,0.226-1.164,0.71h-6.527V26.85h6.13c0.344,0,0.662-0.033,1.004-0.128c-0.608-0.647-2.06-2.327-4.388-5.04
		c0-1.52,0.662-2.91,1.981-4.136c1.349-1.228,2.96-1.842,4.838-1.842c1.851,0,3.462,0.614,4.836,1.874
		c1.294,1.193,1.931,2.584,1.931,4.104c-0.265,0.29-1.746,1.971-4.44,5.04c0.344,0.095,0.712,0.128,1.058,0.128h5.603v2.906H-50.958
		z M-56.032,21.1c-0.08-0.646-0.422-1.228-1.03-1.712c-0.766-0.582-1.743-0.874-2.879-0.874c-1.139,0-2.089,0.292-2.856,0.874
		c-0.634,0.546-1.004,1.097-1.084,1.712c0.872,1.034,2.166,2.553,3.938,4.555L-56.032,21.1z"/>
	<path fill="#FFFFFF" d="M-30.954,29.756h-21.54V26.85h3.912v-12.6l-0.398-3.975l3.305-0.355l-0.292,4.264v9.37
		c0.766-1.743,1.903-3.359,3.409-4.813c1.797-1.842,3.543-2.746,5.261-2.746c1.85,0,3.356,0.518,4.546,1.584
		c1.188,1.066,1.796,2.49,1.796,4.33v7.848H-30.954z M-33.622,26.85v-4.428c0-2.454-1.428-3.682-4.254-3.682
		c-1.508,0-3.2,1.1-5.074,3.296c-1.586,1.842-2.565,3.424-2.96,4.813H-33.622z"/>
	<path fill="#FFFFFF" d="M-3.444,25.04c0,2.942-1.479,4.716-3.886,4.716h-11.866c-1.506,0-2.722-0.646-3.622-1.908
		c-0.897-1.292-1.348-2.97-1.348-5.072c0-1.615,0.342-3.131,1.032-4.588h2.352c-0.819,1.423-1.241,2.746-1.241,3.944
		c0,3.132,1.058,4.716,3.146,4.716H-7.99c1.294,0,1.956-0.842,1.956-2.554V13.958l-0.5-4.136l3.093-0.87V25.04H-3.444z
		 M-9.021,19.354h-8.591v-1.938h1.509c0-2.972,1.109-4.458,3.33-4.458c0.871,0,1.691,0.356,2.51,1.065
		c-0.106,0.421-0.265,0.937-0.502,1.584c-0.45-0.483-0.952-0.745-1.48-0.709c-1.164,0.031-1.744,0.869-1.744,2.52h2.036l1.534-0.227
		L-9.021,19.354z"/>
	<path fill="#FFFFFF" d="M3.582,28.4c0,4.361-1.904,7.205-5.682,8.498l-0.555-1.261c2.433-0.938,3.648-3.004,3.648-6.233
		l-0.026-8.11l-0.53-4.328l3.146-0.874V28.4H3.582z"/>
	<path fill="#FFFFFF" d="M12.936,29.756h-2.062c-2.404,0-3.912-1.81-3.912-4.814V13.958L6.514,9.822l3.092-0.87v15.25
		c0,1.776,0.635,2.649,1.902,2.649h1.428V29.756z"/>
	<path fill="#FFFFFF" d="M35.454,29.756h-1.402c-1.058,0-1.93-0.324-2.642-0.968c-0.662,0.644-1.506,0.968-2.51,0.968
		c-1.4,0-2.564-0.611-3.543-1.84c-0.711,1.229-1.77,1.84-3.197,1.84c-1.348,0-2.538-0.646-3.568-1.908
		c-0.132,0.227-0.318,0.454-0.5,0.678c-0.714,0.809-1.638,1.229-2.828,1.229h-3.065v-2.906h2.43c1.269,0,1.902-0.842,1.902-2.554
		l0.052-6.233l2.59-0.711v8.045v0.386c0.662,0.743,1.428,1.1,2.3,1.1c1.242,0,1.876-0.838,1.876-2.552v-6.266l2.618-0.711v8.336
		c0.66,0.809,1.4,1.194,2.272,1.194c1.242,0,1.876-0.838,1.876-2.552v-3.166l-0.502-4.198l3.146-0.874v8.24
		c0,1.678,0.635,2.52,1.902,2.52h0.792v2.904H35.454z M23.876,10.922c0,1.066-0.687,1.94-1.612,1.94
		c-0.871,0-1.638-0.809-1.638-1.97c0-1.068,0.767-1.938,1.638-1.938C23.11,8.952,23.876,9.792,23.876,10.922z M25.966,5.914
		c0,1.034-0.688,1.939-1.612,1.939c-0.871,0-1.586-0.871-1.586-1.939c0-1.064,0.715-2,1.586-2
		C25.278,3.912,25.966,4.786,25.966,5.914z M28.105,10.922c0,1.066-0.711,1.94-1.638,1.94c-0.846,0-1.612-0.809-1.612-1.97
		c0-1.068,0.767-1.938,1.612-1.938C27.338,8.952,28.105,9.792,28.105,10.922z"/>
	<path fill="#FFFFFF" d="M44.99,29.756h-1.982c-1.058,0-1.93-0.324-2.59-0.968c-0.714,0.644-1.561,0.968-2.538,0.968h-3.144V26.85
		h2.43c1.294,0,1.956-0.842,1.956-2.554v-3.132l-0.554-4.198l3.144-0.874v8.206c0,1.712,0.636,2.554,1.904,2.554h1.376v2.904H44.99z
		 M38.092,10.922c0,1.066-0.688,1.94-1.611,1.94c-0.873,0-1.586-0.809-1.586-1.97c0-1.068,0.713-1.938,1.586-1.938
		C37.404,8.952,38.092,9.792,38.092,10.922z M42.322,10.922c0,1.066-0.688,1.94-1.612,1.94c-0.872,0-1.586-0.809-1.586-1.97
		c0-1.068,0.714-1.938,1.586-1.938C41.634,8.952,42.322,9.792,42.322,10.922z"/>
	<path fill="#FFFFFF" d="M52.204,25.072c0,2.876-1.506,4.684-3.912,4.684H44.25V26.85h3.41c1.294,0,1.93-0.842,1.93-2.554V21.1
		l-0.45-4.134l3.066-0.842v8.948H52.204z M50.75,10.922c0,1.066-0.662,1.94-1.586,1.94s-1.612-0.809-1.612-1.94
		c0-1.13,0.688-1.97,1.612-1.97C50.036,8.952,50.75,9.792,50.75,10.922z"/>
	<path fill="#FFFFFF" d="M65.813,29.756H63.75c-2.406,0-3.912-1.81-3.912-4.814V13.958L59.39,9.822l3.093-0.87v15.25
		c0,1.776,0.634,2.649,1.901,2.649h1.429V29.756z"/>
	<path fill="#FFFFFF" d="M73.025,25.072c0,2.876-1.506,4.684-3.911,4.684h-4.042V26.85h3.41c1.293,0,1.93-0.842,1.93-2.554V21.1
		l-0.45-4.134l3.066-0.842v8.948H73.025z M71.572,10.922c0,1.066-0.662,1.94-1.586,1.94s-1.612-0.809-1.612-1.94
		c0-1.13,0.688-1.97,1.612-1.97C70.857,8.952,71.572,9.792,71.572,10.922z"/>
	<path fill="#FFFFFF" d="M88.67,29.756h-3.118c-0.45,3.714-2.327,6.106-5.577,7.141l-0.557-1.261
		c2.273-1.065,3.462-3.036,3.594-5.88h-2.51c-1.426,0-2.59-0.516-3.462-1.584c-0.978-1.132-1.479-2.65-1.479-4.588
		c0-2.357,0.554-4.232,1.691-5.684c1.136-1.456,2.645-2.198,4.494-2.198h3.857v11.146h3.066V29.756z M82.934,26.85v-9.271h-1.346
		c-2.088,0-3.33,2.068-3.33,5.428c0,2.55,0.82,3.846,2.458,3.846h2.218V26.85z"/>
	<path fill="#FFFFFF" d="M102.278,29.756H87.954V26.85h4.729c-0.688-1.1-1.031-2.457-1.031-4.104c0-2.002,0.502-3.652,1.479-4.912
		c0.978-1.292,2.248-1.904,3.78-1.874c1.452,0,3.012,0.776,4.652,2.294l-1.006,1.456c-0.979-0.808-1.98-1.228-3.064-1.228
		c-2.141,0-3.225,1.518-3.225,4.521c0,1.229,0.293,2.196,0.9,2.91c0.53,0.611,1.189,0.936,1.954,0.936H98.5l3.436-0.453
		L102.278,29.756z"/>
	<path fill="#FFFFFF" d="M114.908,23.328v3.488l0.397,2.939h-10.491l0.686-2.906h6.688l0.08-0.678v-3.394
		c0-1.584-0.266-2.811-0.768-3.746c-0.475-0.808-1.082-1.229-1.85-1.229c-0.236,0-0.528,0.064-0.818,0.227
		c0-0.324-0.052-0.937-0.134-1.811c0.082,0,0.372-0.032,0.821-0.128c1.612,0,2.906,0.678,3.885,2.068
		C114.382,19.516,114.882,21.229,114.908,23.328z"/>
	<path fill="#FFFFFF" d="M128.016,23.878h-10.174v-1.616h10.174V23.878z"/>
	<path fill="#FFFFFF" d="M146.462,29.756c-1.403,0-2.512-0.55-3.358-1.646c-0.926,0.614-2.062,0.905-3.409,0.936
		c-2.828,0-4.546-2.458-4.546-6.332c0-2.102,0.556-3.78,1.691-5.04c1.137-1.292,2.643-1.938,4.494-1.938h0.844l-0.158-1.456
		c1.137-0.354,2.194-0.645,3.17-0.87v10.822c0,1.744,0.637,2.617,1.933,2.617h1.664v2.906H146.462z M140.62,10.146
		c0,1.002-0.66,1.938-1.586,1.938c-0.922,0-1.61-0.872-1.61-2.002c0-1.034,0.687-1.97,1.61-1.97
		C139.906,8.112,140.62,8.952,140.62,10.146z M142.602,17.834c-0.502,0.032-0.978,0.066-1.428,0.066
		c-0.898,0.031-1.691,0.418-2.352,1.226c-0.662,0.808-0.979,1.81-0.979,3.006c0.026,2.81,0.846,4.23,2.458,4.23
		c0.792,0,1.559-0.128,2.298-0.386v-8.143H142.602z M144.85,10.146c0,1.002-0.66,1.938-1.586,1.938s-1.64-0.872-1.64-2.002
		c0-1.034,0.712-1.97,1.64-1.97C144.107,8.112,144.85,8.952,144.85,10.146z"/>
	<path fill="#FFFFFF" d="M166.57,29.756h-6.289c-0.793,0-1.719-0.292-2.75-0.838c-0.186,0.128-0.793,0.16-1.824,0.128
		c-0.766,0-1.135,0.226-1.164,0.71h-6.527V26.85h6.131c0.346,0,0.658-0.033,1.006-0.128c-0.609-0.647-2.063-2.327-4.389-5.04
		c0-1.52,0.66-2.91,1.984-4.136c1.346-1.228,2.959-1.842,4.834-1.842c1.852,0,3.461,0.614,4.838,1.874
		c1.295,1.193,1.928,2.584,1.928,4.104c-0.262,0.29-1.744,1.971-4.439,5.04c0.344,0.095,0.713,0.128,1.057,0.128h5.604v2.906H166.57
		z M161.496,21.1c-0.08-0.646-0.424-1.228-1.031-1.712c-0.766-0.582-1.746-0.874-2.881-0.874s-2.086,0.292-2.854,0.874
		c-0.635,0.546-1.008,1.097-1.084,1.712c0.873,1.034,2.168,2.553,3.938,4.555L161.496,21.1z"/>
	<path fill="#FFFFFF" d="M172.988,25.072c0,2.876-1.504,4.684-3.908,4.684h-4.045V26.85h3.41c1.295,0,1.93-0.842,1.93-2.554V21.1
		l-0.451-4.134l3.064-0.842V25.072z M173.836,14.023h-7.85v-2.002h1.213c0-2.746,1.215-4.621,3.332-4.621
		c0.873,0,1.691,0.355,2.512,1.067c-0.133,0.418-0.316,0.968-0.504,1.616c-0.449-0.486-0.951-0.744-1.479-0.744
		c-1.189,0.066-1.797,0.971-1.771,2.682h1.639l1.504-0.164L173.836,14.023z"/>
	<path fill="#FFFFFF" d="M179.227,8.886l-0.291,4.298v16.572h-2.619v-16.54L175.92,9.21L179.227,8.886z"/>
	<path fill="#FFFFFF" d="M189.666,29.756h-2.115c-0.475,0-0.926-0.066-1.32-0.226c-0.318,3.748-2.195,6.204-5.658,7.366l-0.58-1.261
		c2.457-0.938,3.674-3.004,3.674-6.233l-0.025-8.11l-0.531-4.328l3.146-0.874v8.076c0,1.778,0.631,2.684,1.928,2.684h1.48v2.906
		H189.666z"/>
	<path fill="#FFFFFF" d="M197.801,24.944c0,3.004-1.508,4.813-3.938,4.813h-4.943v-2.906h4.309c1.293,0,1.93-0.873,1.93-2.649
		V13.926l-0.447-4.264l3.09-0.906V24.944L197.801,24.944z"/>
	<path fill="#FFFFFF" d="M204.039,8.886l-0.291,4.298v16.572h-2.619v-16.54l-0.395-4.006L204.039,8.886z"/>
	<path fill="#FFFFFF" d="M231.547,25.04c0,2.942-1.477,4.716-3.885,4.716h-11.865c-1.508,0-2.721-0.646-3.623-1.908
		c-0.898-1.292-1.346-2.97-1.346-5.072c0-1.615,0.342-3.131,1.027-4.588h2.355c-0.818,1.423-1.242,2.746-1.242,3.944
		c0,3.132,1.055,4.716,3.145,4.716H227c1.297,0,1.957-0.842,1.957-2.554V21.1l-0.5-4.134l3.09-0.874V25.04z M220.766,16.22
		c0,1.066-0.711,1.94-1.586,1.94c-0.924,0-1.611-0.809-1.611-1.971c0-1.065,0.688-1.938,1.611-1.938
		C220.051,14.25,220.766,15.088,220.766,16.22z M224.996,16.22c0,1.066-0.715,1.94-1.588,1.94c-0.926,0-1.611-0.809-1.611-1.971
		c0-1.065,0.686-1.938,1.611-1.938C224.281,14.25,224.996,15.088,224.996,16.22z"/>
	<path fill="#FFFFFF" d="M240.902,29.756h-2.063c-2.404,0-3.912-1.81-3.912-4.814V13.958l-0.449-4.136l3.094-0.87v15.25
		c0,1.776,0.635,2.649,1.902,2.649h1.428V29.756z"/>
	<path fill="#FFFFFF" d="M264.186,29.756H240.16V26.85h3.939v-12.6l-0.422-3.975l3.301-0.355l-0.291,4.264v9.37
		c0.766-1.743,1.902-3.359,3.41-4.813c1.797-1.842,3.543-2.746,5.258-2.746c1.852,0,3.359,0.518,4.545,1.584
		c1.189,1.066,1.799,2.49,1.799,4.33v4.943h2.482v2.904H264.186z M259.035,26.85v-4.428c0-2.454-1.432-3.682-4.26-3.682
		c-1.504,0-3.195,1.1-5.072,3.296c-1.557,1.842-2.563,3.424-2.959,4.813H259.035z M256.654,10.922c0,1.066-0.689,1.94-1.615,1.94
		c-0.873,0-1.586-0.809-1.586-1.94c0-1.13,0.713-1.97,1.586-1.97C255.965,8.952,256.654,9.792,256.654,10.922z"/>
	<path fill="#FFFFFF" d="M279.961,29.756h-16.496V26.85h11.422c-0.637-1.777-1.508-3.619-2.643-5.46
		c-1.455-2.422-2.75-3.618-3.834-3.618c-0.793,0-1.191,0.612-1.191,1.807c0,0.582,0.133,1.294,0.373,2.166l-2.748,0.39
		c0.289-4.231,2.086-6.784,4.414-6.784c1.797,0,3.621,1.42,5.445,4.265c1.398,2.228,2.512,4.651,3.277,7.237h1.98V29.756
		L279.961,29.756z"/>
	<path fill="#FFFFFF" d="M289.363,29.756h-1.771c-1.057,0-1.928-0.324-2.613-1.002c-0.664,0.678-1.51,1.002-2.514,1.002h-3.225
		V26.85h2.541c1.266,0,1.9-0.873,1.9-2.649V14.152l-0.504-4.33l3.146-0.87v15.25c0,1.776,0.633,2.649,1.902,2.649h1.137V29.756
		L289.363,29.756z"/>
	<path fill="#FFFFFF" d="M297.502,24.944c0,3.004-1.508,4.813-3.938,4.813h-4.943v-2.906h4.307c1.295,0,1.928-0.873,1.928-2.649
		V13.926l-0.445-4.264l3.09-0.906v16.188H297.502z"/>
	<path fill="#FFFFFF" d="M303.738,8.886l-0.289,4.298v16.572h-2.619v-16.54l-0.396-4.006L303.738,8.886z"/>
	<path fill="#FFFFFF" d="M331.25,25.04c0,2.942-1.479,4.716-3.883,4.716h-11.869c-1.504,0-2.721-0.646-3.619-1.908
		c-0.9-1.292-1.348-2.97-1.348-5.072c0-1.615,0.34-3.131,1.029-4.588h2.354c-0.82,1.423-1.244,2.746-1.244,3.944
		c0,3.132,1.057,4.716,3.146,4.716h10.887c1.297,0,1.959-0.842,1.959-2.554V13.958l-0.504-4.136l3.092-0.87V25.04z M325.674,19.354
		h-8.59v-1.938h1.508c0-2.972,1.111-4.458,3.33-4.458c0.871,0,1.691,0.356,2.51,1.065c-0.105,0.421-0.264,0.937-0.502,1.584
		c-0.447-0.483-0.951-0.745-1.477-0.709c-1.164,0.031-1.746,0.869-1.746,2.52h2.035l1.533-0.227L325.674,19.354z"/>
	<path fill="#FFFFFF" d="M338.281,28.4c0,4.361-1.906,7.205-5.688,8.498l-0.555-1.261c2.436-0.938,3.648-3.004,3.648-6.233
		l-0.025-8.11l-0.529-4.328l3.145-0.874V28.4H338.281z"/>
	<path fill="#FFFFFF" d="M347.633,29.756h-2.063c-2.404,0-3.912-1.81-3.912-4.814V13.958l-0.451-4.136l3.094-0.87v15.25
		c0,1.776,0.635,2.649,1.902,2.649h1.43V29.756z"/>
	<path fill="#FFFFFF" d="M370.148,29.756h-1.402c-1.057,0-1.928-0.324-2.645-0.968c-0.66,0.644-1.504,0.968-2.508,0.968
		c-1.402,0-2.566-0.611-3.543-1.84c-0.715,1.229-1.77,1.84-3.199,1.84c-1.348,0-2.535-0.646-3.566-1.908
		c-0.133,0.227-0.316,0.454-0.504,0.678c-0.711,0.809-1.637,1.229-2.828,1.229h-3.066v-2.906h2.436c1.268,0,1.902-0.842,1.902-2.554
		l0.053-6.233l2.59-0.711v8.045v0.386c0.66,0.743,1.426,1.1,2.297,1.1c1.242,0,1.875-0.838,1.875-2.552v-6.266l2.619-0.711v8.336
		c0.66,0.809,1.398,1.194,2.271,1.194c1.242,0,1.877-0.838,1.877-2.552v-3.166l-0.502-4.198l3.145-0.874v8.24
		c0,1.678,0.633,2.52,1.9,2.52h0.795v2.904H370.148z M358.57,10.922c0,1.066-0.688,1.94-1.613,1.94c-0.871,0-1.637-0.809-1.637-1.97
		c0-1.068,0.768-1.938,1.637-1.938C357.805,8.952,358.57,9.792,358.57,10.922z M360.66,5.914c0,1.034-0.688,1.939-1.613,1.939
		c-0.875,0-1.586-0.871-1.586-1.939c0-1.064,0.711-2,1.586-2C359.973,3.912,360.66,4.786,360.66,5.914z M362.801,10.922
		c0,1.066-0.715,1.94-1.639,1.94c-0.848,0-1.615-0.809-1.615-1.97c0-1.068,0.768-1.938,1.615-1.938
		C362.035,8.952,362.801,9.792,362.801,10.922z"/>
	<path fill="#FFFFFF" d="M379.688,29.756h-1.984c-1.055,0-1.928-0.324-2.59-0.968c-0.713,0.644-1.559,0.968-2.537,0.968h-3.146
		V26.85h2.434c1.295,0,1.957-0.842,1.957-2.554v-3.132l-0.555-4.198l3.145-0.874v8.206c0,1.712,0.633,2.554,1.902,2.554h1.375
		V29.756z M372.789,10.922c0,1.066-0.689,1.94-1.615,1.94c-0.873,0-1.584-0.809-1.584-1.97c0-1.068,0.711-1.938,1.584-1.938
		C372.1,8.952,372.789,9.792,372.789,10.922z M377.018,10.922c0,1.066-0.688,1.94-1.613,1.94c-0.873,0-1.586-0.809-1.586-1.97
		c0-1.068,0.713-1.938,1.586-1.938C376.33,8.952,377.018,9.792,377.018,10.922z"/>
	<path fill="#FFFFFF" d="M386.896,25.072c0,2.876-1.504,4.684-3.908,4.684h-4.047V26.85h3.41c1.297,0,1.934-0.842,1.934-2.554V21.1
		l-0.453-4.134l3.064-0.842V25.072z M385.445,10.922c0,1.066-0.66,1.94-1.586,1.94s-1.613-0.809-1.613-1.94
		c0-1.13,0.688-1.97,1.613-1.97C384.732,8.952,385.445,9.792,385.445,10.922z"/>
	<path fill="#FFFFFF" d="M400.508,29.756h-2.063c-2.402,0-3.91-1.81-3.91-4.814V13.958l-0.451-4.136l3.094-0.87v15.25
		c0,1.776,0.633,2.649,1.902,2.649h1.428V29.756L400.508,29.756z"/>
	<path fill="#FFFFFF" d="M407.719,25.072c0,2.876-1.504,4.684-3.906,4.684h-4.047V26.85h3.41c1.297,0,1.93-0.842,1.93-2.554V21.1
		l-0.449-4.134l3.063-0.842V25.072z M406.27,10.922c0,1.066-0.66,1.94-1.588,1.94c-0.926,0-1.611-0.809-1.611-1.94
		c0-1.13,0.686-1.97,1.611-1.97C405.557,8.952,406.27,9.792,406.27,10.922z"/>
	<path fill="#FFFFFF" d="M423.367,29.756h-3.123c-0.451,3.714-2.324,6.106-5.576,7.141l-0.555-1.261
		c2.273-1.065,3.465-3.036,3.598-5.88h-2.512c-1.428,0-2.59-0.516-3.463-1.584c-0.979-1.132-1.479-2.65-1.479-4.588
		c0-2.357,0.557-4.232,1.691-5.684c1.137-1.456,2.643-2.198,4.496-2.198h3.855v11.146h3.066V29.756L423.367,29.756z M417.629,26.85
		v-9.271h-1.348c-2.086,0-3.332,2.068-3.332,5.428c0,2.55,0.82,3.846,2.459,3.846h2.221V26.85z"/>
	<path fill="#FFFFFF" d="M436.975,29.756h-14.326V26.85h4.73c-0.684-1.1-1.031-2.457-1.031-4.104c0-2.002,0.504-3.652,1.482-4.912
		c0.975-1.292,2.246-1.904,3.777-1.874c1.457,0,3.014,0.776,4.65,2.294l-1.002,1.456c-0.979-0.808-1.984-1.228-3.066-1.228
		c-2.143,0-3.221,1.518-3.221,4.521c0,1.229,0.289,2.196,0.895,2.91c0.531,0.611,1.191,0.936,1.959,0.936h1.373l3.438-0.453
		L436.975,29.756z"/>
	<path fill="#FFFFFF" d="M449.602,23.328v3.488L450,29.756h-10.492l0.688-2.906h6.688l0.078-0.678v-3.394
		c0-1.584-0.266-2.811-0.768-3.746c-0.475-0.808-1.08-1.229-1.85-1.229c-0.236,0-0.529,0.064-0.818,0.227
		c0-0.324-0.051-0.937-0.133-1.811c0.082,0,0.371-0.032,0.822-0.128c1.611,0,2.906,0.678,3.883,2.068
		C449.076,19.516,449.576,21.229,449.602,23.328z"/>
</g>
</svg>
